<?xml version="1.0"?><svg version="1.2" baseProfile="tiny-ps" viewBox="0 0 300 300" xmlns="http://www.w3.org/2000/svg" xmlns:xlink="http://www.w3.org/1999/xlink"><title>Lim Zhi Xuan</title><g><g fill="#fff" transform="matrix(.1 0 0 -.1 0 300)"><path d="M203 2982c-67-24-118-63-154-120l-28-45-11-51-11-51 3-1245L5 225l28-57 28-57 36-32c21-17 57-41 82-53l46-21h2550l57 28 57 28 32 36c17 21 41 57 53 82l21 46v2550l-21 46c-12 25-36 61-53 82l-32 36-57 28-57 28-1260 2-1260 3-52-18z"/></g><g fill="#cfcfcf" transform="matrix(.1 0 0 -.1 0 300)"><path d="M203 2982c-67-24-118-63-154-120l-28-45-11-51-11-51 3-1245L5 225l28-57 28-57 36-32c21-17 57-41 82-53l46-21h2550l57 28 57 28 32 36c17 21 41 57 53 82l21 46v2550l-21 46c-12 25-36 61-53 82l-32 36-57 28-57 28-1260 2-1260 3-52-18zm1147-934-1-83-304-455-304-455 306-3 305-2-6-58c-4-31-10-72-13-89l-5-33H510v160l305 458 305 457-275 3-275 2v180h780v-82zm504-137c67-117 126-213 130-213 5 1 63 97 130 214l122 213 107 3c59 1 107 0 107-3s-79-133-175-289-175-286-175-289c0-2 88-153 195-336s195-334 195-336c0-3-49-5-109-5h-109l-10 13c-5 6-69 121-142 255l-133 243-9-3c-5-2-72-117-150-256l-140-252h-217l116 198c64 108 151 257 194 330 44 73 79 136 79 140s-39 70-86 147c-48 77-128 209-180 293l-93 153 115-3 116-3 122-214z"/></g><g fill="#9f9f9f" transform="matrix(.1 0 0 -.1 0 300)"><path d="M203 2982c-67-24-118-63-154-120l-28-45-11-51-11-51 3-1245L5 225l28-57 28-57 36-32c21-17 57-41 82-53l46-21h2550l57 28 57 28 32 36c17 21 41 57 53 82l21 46v2550l-21 46c-12 25-36 61-53 82l-32 36-57 28-57 28-1260 2-1260 3-52-18zm1147-935v-84l-296-444c-163-244-299-450-301-456l-5-13h609l-9-67c-5-38-11-78-13-91l-5-22H500v150l301 451c165 248 303 457 306 465l5 14H570v180h780v-83zm495-114c61-108 117-205 126-216l16-20 124 216 124 217h224l-146-237c-206-336-212-346-209-352 9-16 370-629 382-648l14-23h-236l-139 255c-77 140-142 255-145 255s-66-109-140-242c-74-132-140-247-145-255l-10-14-108 3-107 3 195 332 196 332-162 263c-89 145-170 278-181 296l-20 32 119-1h118l110-196z"/></g><g fill="#707070" transform="matrix(.1 0 0 -.1 0 300)"><path d="M203 2982c-67-24-118-63-154-120l-28-45-11-51-11-51 3-1245L5 225l28-57 28-57 36-32c21-17 57-41 82-53l46-21h2550l57 28 57 28 32 36c17 21 41 57 53 82l21 46v2550l-21 46c-12 25-36 61-53 82l-32 36-57 28-57 28-1260 2-1260 3-52-18zm1157-930v-77l-305-457c-168-252-305-460-305-463s138-5 306-5h306l-5-22c-4-13-9-53-13-90l-7-68H500v156l301 449c165 247 303 454 306 462l5 13H560v180h800v-78zm488-121c62-109 119-206 126-216l12-17 124 216 123 216h228l-4-7c-3-5-82-133-176-286s-173-282-174-286c-2-5 104-188 375-647l20-34h-240l-138 250c-75 138-140 252-143 254s-69-110-146-250l-140-253-112-1c-62 0-113 2-113 4 0 4 349 601 375 642l14 22-180 292c-98 161-179 294-179 296s53 4 118 4h117l113-199z"/></g><g fill="#3e3e3e" transform="matrix(.1 0 0 -.1 0 300)"><path d="M203 2982c-67-24-118-63-154-120l-28-45-11-51-11-51 3-1245L5 225l28-57 28-57 36-32c21-17 57-41 82-53l46-21h2550l57 28 57 28 32 36c17 21 41 57 53 82l21 46v2550l-21 46c-12 25-36 61-53 82l-32 36-57 28-57 28-1260 2-1260 3-52-18zm1157-932v-80l-305-458-305-457 305-3 306-2-7-53c-4-28-9-70-13-92l-7-40-417-3-417-2v165l305 457 305 458-273 2-272 3-3 93-3 92h801v-80zm500-135c68-119 124-214 125-213 1 2 57 99 125 216l122 212h229l-4-7c-2-5-79-130-170-280-92-149-170-278-173-286l-6-15 191-324c104-178 193-331 196-340l7-18h-232l-23 38c-13 20-77 135-143 255-65 119-121 217-124 217s-69-114-147-253l-141-252-111-3-111-3v11c0 6 86 157 190 335 105 178 190 328 190 333 0 6-77 136-171 289s-174 284-176 291l-5 12h239l123-215z"/></g><g fill="#010101" transform="matrix(.1 0 0 -.1 0 300)"><path d="M203 2982c-67-24-118-63-154-120l-28-45-11-51-11-51 3-1245L5 225l28-57 28-57 36-32c21-17 57-41 82-53l46-21h2550l57 28 57 28 32 36c17 21 41 57 53 82l21 46v2550l-21 46c-12 25-36 61-53 82l-32 36-57 28-57 28-1260 2-1260 3-52-18zm1157-929v-88l-300-450-300-450 300-3 300-2v-25c0-13-5-58-11-100l-11-75H500v170l300 450c165 247 300 452 300 455s-121 5-270 5H560v200h800v-87zm378 75c5-7 60-101 122-208 61-107 115-199 119-203l8-8 124 216 123 215h226v-11c0-6-32-63-72-127-39-64-119-193-176-287l-104-170 9-15c96-156 383-650 383-659v-11h-238l-133 243c-72 133-136 248-142 255l-10 12-141-252-142-253-117-3c-64-1-117 0-117 3 0 4 83 147 183 318 101 172 189 322 196 335l12 23-99 162c-55 89-136 220-180 292-44 71-78 133-75 137l4 8h227l10-12z"/></g></g></svg>